<?xml version="1.0" encoding="utf-8"?>
<!-- Generator: Adobe Illustrator 15.1.0, SVG Export Plug-In . SVG Version: 6.00 Build 0)  -->
<!DOCTYPE svg PUBLIC "-//W3C//DTD SVG 1.1//EN" "http://www.w3.org/Graphics/SVG/1.1/DTD/svg11.dtd">
<svg version="1.1" id="Layer_1" xmlns="http://www.w3.org/2000/svg" xmlns:xlink="http://www.w3.org/1999/xlink" x="0px" y="0px"
	 width="418px" height="175px" viewBox="0 0 418 175" enable-background="new 0 0 418 175" xml:space="preserve">
<g>
	<path fill="#FFFFFF" d="M0,4.254h9.886c4.302,0,8.604,1.099,11.899,4.211c3.296,3.112,5.492,8.238,5.492,15.928
		c0,7.689-2.196,12.724-5.492,15.836c-3.295,3.112-7.598,4.394-11.899,4.394v26.912H0V4.254z M9.886,34.553
		c3.021,0,4.943-0.549,6.041-2.105c1.099-1.465,1.373-3.936,1.373-7.689c0-3.753-0.274-6.408-1.373-8.056
		c-1.098-1.647-3.021-2.38-6.041-2.38V34.553z"/>
	<path fill="#FFFFFF" d="M46.223,33.363c0-0.824,0-2.105-0.274-3.021c-0.366-0.916-1.099-1.556-2.288-1.556
		c-1.557,0-2.197,1.19-2.472,2.655c-0.092,0.732-0.183,1.556-0.183,2.38s0,1.647,0,2.38H31.76v-2.105
		c0-3.661,1.373-6.957,3.57-9.428s5.31-3.936,8.879-3.936c3.021,0,5.768,1.19,7.872,3.204c2.105,2.014,3.388,4.852,3.388,8.147
		v30.756c0,4.485,0.274,6.5,0.641,8.696h-9.062c-0.824-1.007-0.824-3.387-0.824-4.028h-0.641c-0.457,0.824-1.281,2.014-2.562,3.021
		s-3.021,1.739-4.852,1.739c-1.19,0-3.112-0.458-4.577-2.289c-1.556-1.739-2.838-4.852-2.838-10.069
		c0-5.583,1.648-9.611,3.845-12.357c2.197-2.746,4.943-4.485,7.231-5.675c2.289-1.19,4.028-2.014,4.394-3.021V33.363z
		 M46.223,47.368c-4.484,1.922-6.407,6.408-6.407,11.167c0,0.641,0.092,1.739,0.458,2.747c0.366,1.098,1.007,1.922,2.105,1.922
		c2.105,0,3.844-1.281,3.844-3.021V47.368z"/>
	<path fill="#FFFFFF" d="M79.999,30.983c-0.823-0.274-1.738-0.366-2.562-0.366c-1.465,0-3.204,0.183-4.669,1.556
		c-1.738,1.465-2.014,3.021-2.014,4.577v34.784h-9.245V21.463h9.245v5.583c0.092-0.641,0.732-2.197,2.197-3.662
		c1.465-1.373,3.661-2.654,7.048-2.654V30.983z"/>
	<path fill="#FFFFFF" d="M95.192,9.105v12.358h6.315v8.33h-6.315v24.898c0,1.556,0,3.57,0.366,5.217
		c0.366,1.648,1.098,3.021,2.562,3.021c0.732,0,1.647-0.092,2.289-0.183c0.366-0.091,0.731-0.091,1.098-0.183v9.062
		c-0.457,0.092-0.915,0.275-1.373,0.366c-0.915,0.183-2.105,0.275-3.569,0.275c-5.401,0-7.964-2.746-9.245-6.225
		c-1.282-3.479-1.373-7.689-1.373-10.618V29.793h-4.669v-8.33h4.669V9.105H95.192z"/>
	<path fill="#FFFFFF" d="M115.694,71.534h-9.245V21.463h9.245v4.21c0.184-0.091,0.55-0.458,1.099-1.007
		c1.007-1.007,2.38-2.38,4.027-3.295c0.824-0.458,1.557-0.641,2.381-0.641c2.471,0,4.21,1.464,5.309,3.295
		c1.099,1.922,1.647,4.394,1.647,6.499v41.009h-9.245V31.898c0-1.922-1.099-2.197-2.196-2.197c-1.008,0-1.557,0.549-2.197,1.19
		c-0.274,0.366-0.549,0.732-0.824,1.19V71.534z"/>
	<path fill="#FFFFFF" d="M160.453,53.593v5.767c-0.274,4.851-1.739,8.238-5.034,10.893c-1.647,1.373-3.937,2.014-6.957,2.014
		c-5.95,0-8.971-3.295-10.435-6.591c-0.824-1.922-1.374-4.119-1.465-6.591V33.912c0.274-4.852,1.83-8.421,5.126-11.167
		c1.556-1.373,3.845-2.014,6.865-2.014c5.95,0,8.971,3.295,10.436,6.499c0.823,1.922,1.373,4.028,1.464,6.408v14.554h-15.286v10.893
		c0.092,1.922,0.641,3.295,1.465,4.302c0.457,0.458,1.098,0.732,1.922,0.732c1.739,0,2.563-1.099,2.929-2.472
		c0.275-0.732,0.366-1.556,0.366-2.563v-5.492H160.453z M145.167,40.96h6.682v-7.048c0-1.922-0.366-3.295-1.281-4.394
		c-0.458-0.458-1.189-0.732-2.014-0.732c-1.739,0-2.472,1.19-2.93,2.563c-0.274,0.732-0.365,1.556-0.457,2.563V40.96z"/>
	<path fill="#FFFFFF" d="M185.074,30.983c-0.823-0.274-1.738-0.366-2.562-0.366c-1.465,0-3.204,0.183-4.669,1.556
		c-1.738,1.465-2.014,3.021-2.014,4.577v34.784h-9.245V21.463h9.245v5.583c0.092-0.641,0.732-2.197,2.197-3.662
		c1.465-1.373,3.661-2.654,7.048-2.654V30.983z"/>
	<path fill="#FFFFFF" d="M210.062,4.254h7.231l-23.983,73.871h-7.506L210.062,4.254z"/>
	<path fill="#FFFFFF" d="M237.703,22.287c0-2.197-0.092-4.668-0.732-6.591c-0.641-1.831-1.647-3.112-3.204-3.112
		c-2.562,0.092-3.387,2.746-3.387,6.682c0,2.289,1.007,4.668,2.472,7.231s3.387,5.218,5.309,8.056
		c2.289,3.387,4.577,6.865,6.316,10.252s2.93,6.865,2.93,10.527c0,4.485-0.732,8.696-2.838,11.809
		c-2.105,3.112-5.492,5.126-10.893,5.126c-6.316,0-9.887-2.38-11.9-6.042s-2.472-8.513-2.472-13.548l9.703-0.915
		c0,2.837,0.092,5.675,0.824,7.781c0.641,2.197,1.739,3.661,3.845,3.661c2.929,0,4.027-3.112,4.027-7.415
		c0-2.197-1.099-4.76-2.563-7.415c-0.823-1.281-1.647-2.654-2.562-4.027c-1.923-2.746-4.028-5.858-6.225-9.246
		c-2.197-3.387-3.845-6.865-4.852-10.435c-0.55-1.739-0.824-3.57-0.824-5.401c0-3.661,0.824-7.598,2.93-10.618
		c2.105-2.929,5.309-5.035,9.978-5.126c5.95-0.092,9.428,2.38,11.351,5.95c1.922,3.662,2.472,8.147,2.472,11.9L237.703,22.287z"/>
	<path fill="#FFFFFF" d="M252.712,21.463h9.246v3.295c1.556-1.464,2.929-2.563,4.76-3.387c0.823-0.458,1.739-0.641,2.562-0.641
		c2.563,0,4.303,1.464,5.492,3.295c1.099,1.922,1.648,4.394,1.648,6.499v31.947c0,2.105-0.55,4.577-1.648,6.407
		c-1.189,1.922-2.929,3.387-5.492,3.387c-1.739,0-3.569-1.007-4.942-2.014c-0.824-0.641-1.557-1.281-2.38-2.014v20.504h-9.246
		V21.463z M261.958,60.55c0,1.464,1.373,3.021,2.746,3.021s2.471-1.281,2.471-3.021V32.448c0-1.739-1.098-3.021-2.471-3.021
		s-2.746,1.282-2.746,3.021V60.55z"/>
	<path fill="#FFFFFF" d="M306.259,59.36c-0.274,4.851-1.739,8.238-4.943,10.893c-1.647,1.373-3.936,2.014-6.956,2.014
		c-5.95,0-8.88-3.295-10.344-6.591c-0.824-1.922-1.373-4.119-1.465-6.591V33.912c0.274-4.852,1.739-8.421,4.942-11.167
		c1.557-1.373,3.845-2.014,6.866-2.014c5.949,0,8.97,3.295,10.435,6.499c0.824,1.922,1.373,4.028,1.465,6.408V59.36z
		 M297.562,33.912c0.092-1.922-0.274-3.295-1.189-4.394c-0.458-0.458-1.19-0.732-2.014-0.732c-1.739,0-2.472,1.19-2.838,2.563
		c-0.274,0.732-0.366,1.556-0.274,2.563v25.173c-0.092,1.922,0.365,3.295,1.189,4.302c0.458,0.458,1.099,0.732,1.923,0.732
		c1.738,0,2.562-1.099,2.929-2.472c0.274-0.732,0.366-1.556,0.274-2.563V33.912z"/>
	<path fill="#FFFFFF" d="M321.819,71.534h-9.246V21.463h9.246v4.21c0.183-0.091,0.549-0.458,1.098-1.007
		c1.007-1.007,2.38-2.38,4.028-3.295c0.823-0.458,1.556-0.641,2.38-0.641c2.472,0,4.211,1.464,5.309,3.295
		c1.099,1.922,1.648,4.394,1.648,6.499v41.009h-9.246V31.898c0-1.922-1.098-2.197-2.196-2.197c-1.007,0-1.557,0.549-2.197,1.19
		c-0.274,0.366-0.549,0.732-0.823,1.19V71.534z"/>
	<path fill="#FFFFFF" d="M356.968,34.278c0-1.19,0-2.654-0.366-3.844c-0.458-1.099-1.19-2.014-2.654-2.014
		c-1.19,0-1.923,0.916-2.289,2.014c-0.458,1.098-0.549,2.654-0.549,3.844c0,1.556,0.823,3.204,2.014,4.668
		c1.099,1.465,2.562,2.929,4.027,4.302c1.923,1.922,4.211,4.119,5.767,6.591c1.557,2.563,2.747,5.401,2.747,8.696
		c0,3.204-0.732,6.591-2.563,9.154c-1.922,2.655-4.852,4.577-9.245,4.577c-5.584,0-8.879-2.563-10.71-5.675
		s-2.197-6.957-2.197-9.612h8.604c0,1.373,0.092,3.295,0.732,4.76c0.641,1.556,1.647,2.837,3.57,2.837
		c2.654,0,3.203-3.112,3.203-6.042c0-3.021-2.929-6.042-5.767-8.879c-2.196-2.105-4.302-4.028-5.95-6.499
		c-1.647-2.472-2.837-5.218-2.837-8.879c0-2.929,0.549-6.316,2.288-8.971c1.739-2.563,4.577-4.485,8.971-4.577
		c5.4-0.092,8.422,1.922,9.978,4.577c1.557,2.655,1.831,6.133,1.831,8.971H356.968z"/>
	<path fill="#FFFFFF" d="M394.038,59.36c-0.274,4.851-1.739,8.238-4.943,10.893c-1.647,1.373-3.936,2.014-6.956,2.014
		c-5.95,0-8.88-3.295-10.344-6.591c-0.824-1.922-1.373-4.119-1.465-6.591V33.912c0.274-4.852,1.739-8.421,4.942-11.167
		c1.557-1.373,3.845-2.014,6.866-2.014c5.949,0,8.97,3.295,10.435,6.499c0.824,1.922,1.373,4.028,1.465,6.408V59.36z
		 M385.342,33.912c0.092-1.922-0.274-3.295-1.189-4.394c-0.458-0.458-1.19-0.732-2.014-0.732c-1.739,0-2.472,1.19-2.838,2.563
		c-0.274,0.732-0.366,1.556-0.274,2.563v25.173c-0.092,1.922,0.365,3.295,1.189,4.302c0.458,0.458,1.099,0.732,1.923,0.732
		c1.738,0,2.562-1.099,2.929-2.472c0.274-0.732,0.366-1.556,0.274-2.563V33.912z"/>
	<path fill="#FFFFFF" d="M418.844,30.983c-0.824-0.274-1.739-0.366-2.563-0.366c-1.465,0-3.204,0.183-4.668,1.556
		c-1.739,1.465-2.014,3.021-2.014,4.577v34.784h-9.246V21.463h9.246v5.583c0.091-0.641,0.731-2.197,2.196-3.662
		c1.465-1.373,3.662-2.654,7.049-2.654V30.983z"/>
	<path fill="#FFFFFF" d="M0,88.254h9.886v58.127h13.09v9.153H0V88.254z"/>
	<path fill="#FFFFFF" d="M49.886,143.36c-0.274,4.851-1.739,8.238-4.942,10.893c-1.648,1.373-3.937,2.014-6.957,2.014
		c-5.95,0-8.879-3.296-10.344-6.591c-0.824-1.922-1.373-4.119-1.465-6.591v-25.173c0.274-4.852,1.739-8.421,4.943-11.167
		c1.556-1.373,3.845-2.014,6.865-2.014c5.949,0,8.971,3.295,10.435,6.499c0.824,1.922,1.373,4.028,1.465,6.408V143.36z
		 M41.189,117.912c0.092-1.922-0.274-3.295-1.189-4.394c-0.458-0.458-1.19-0.732-2.014-0.732c-1.739,0-2.472,1.19-2.838,2.563
		c-0.274,0.732-0.366,1.556-0.274,2.563v25.173c-0.092,1.923,0.366,3.296,1.189,4.303c0.458,0.457,1.099,0.732,1.923,0.732
		c1.739,0,2.562-1.099,2.929-2.472c0.274-0.732,0.366-1.557,0.274-2.563V117.912z"/>
	<path fill="#FFFFFF" d="M78.993,131.368c-0.275,4.668-1.923,7.964-5.127,10.436c-1.647,1.281-3.936,1.922-6.773,1.922
		c-0.274,0-0.549,0-0.824,0c-0.274,0-0.641,0-0.915-0.092c-0.824,0.732-1.281,1.464-1.281,2.289c0,1.099,0.915,1.739,2.288,2.105
		c1.373,0.457,3.021,0.732,4.76,1.007c2.93,0.366,6.042,1.099,8.604,2.838c2.472,1.739,4.211,4.394,4.211,8.787
		c0,4.852-2.105,8.146-5.034,10.069c-3.021,1.922-7.049,2.746-10.802,2.746c-4.394-0.092-8.146-0.732-10.71-2.197
		c-2.654-1.464-4.119-3.845-4.119-7.506c0-1.739,0.916-3.204,2.289-4.485s3.203-2.288,4.942-3.112
		c-3.021-0.823-5.584-2.746-5.584-6.682c0-1.465,0.824-2.93,1.923-4.303s2.472-2.472,3.845-3.204
		c-2.655-1.739-3.937-4.485-4.577-6.774c-0.366-1.373-0.641-2.746-0.732-4.119v-13.639c0.366-4.668,1.831-8.055,5.034-10.71
		c1.557-1.373,3.845-2.014,6.683-2.014c4.669,0,7.506,2.105,9.245,4.577c0.641-0.641,1.739-1.739,3.204-2.746
		c1.373-1.007,2.929-1.831,4.394-1.831v8.238c-2.472,0-4.302,0.458-5.4,1.099c0.092,0.458,0.183,0.915,0.274,1.19
		c0,0.366,0,0.732,0.092,1.007s0.092,0.641,0.092,0.916V131.368z M65.628,157.822c-1.922,1.099-3.387,2.472-3.387,4.395
		c0,1.922,1.739,3.479,6.042,3.479c1.556,0,3.295-0.275,4.668-0.824s2.38-1.373,2.38-2.563c0-0.823-0.092-1.464-0.732-2.105
		c-0.732-0.641-1.922-1.098-4.211-1.464L65.628,157.822z M69.931,117.821c0-1.739-0.366-2.838-1.099-3.845
		c-0.366-0.458-0.915-0.732-1.739-0.732c-1.465,0-2.197,1.19-2.472,2.289c-0.183,0.641-0.274,1.465-0.183,2.289v13.73
		c-0.092,1.739,0.183,2.838,1.007,3.753c0.366,0.458,0.915,0.732,1.647,0.732c1.557,0,2.197-1.098,2.563-2.197
		c0.183-0.641,0.274-1.465,0.274-2.289V117.821z"/>
	<path fill="#FFFFFF" d="M110.114,143.36c-0.274,4.851-1.739,8.238-4.943,10.893c-1.647,1.373-3.937,2.014-6.957,2.014
		c-5.949,0-8.879-3.296-10.344-6.591c-0.823-1.922-1.373-4.119-1.464-6.591v-25.173c0.274-4.852,1.738-8.421,4.942-11.167
		c1.557-1.373,3.845-2.014,6.865-2.014c5.95,0,8.971,3.295,10.436,6.499c0.824,1.922,1.373,4.028,1.465,6.408V143.36z
		 M101.418,117.912c0.092-1.922-0.274-3.295-1.19-4.394c-0.457-0.458-1.189-0.732-2.014-0.732c-1.739,0-2.472,1.19-2.838,2.563
		c-0.274,0.732-0.365,1.556-0.274,2.563v25.173c-0.091,1.923,0.366,3.296,1.19,4.303c0.458,0.457,1.099,0.732,1.922,0.732
		c1.739,0,2.563-1.099,2.93-2.472c0.274-0.732,0.366-1.557,0.274-2.563V117.912z"/>
</g>
</svg>
