<?xml version="1.0" encoding="utf-8"?>
<!-- Generator: Adobe Illustrator 15.1.0, SVG Export Plug-In . SVG Version: 6.00 Build 0)  -->
<!DOCTYPE svg PUBLIC "-//W3C//DTD SVG 1.1//EN" "http://www.w3.org/Graphics/SVG/1.1/DTD/svg11.dtd">
<svg version="1.1" id="Layer_1" xmlns="http://www.w3.org/2000/svg" xmlns:xlink="http://www.w3.org/1999/xlink" x="0px" y="0px"
	 width="418px" height="287px" viewBox="0 0 418 287" enable-background="new 0 0 418 287" xml:space="preserve">
<g>
	<path fill="#FFFFFF" d="M34.9,66h7.8v12.54H13.5V66h7.8V13.31H10.8v11.44H0V0h56.2v24.75H45.4V13.31H34.9V66z"/>
	<path fill="#FFFFFF" d="M89.359,87.451h7v12.54H70.358v-12.54h6.7l3.601-9.68l-16.2-45.43h-7V19.8h25.2v12.54h-5.2l9.5,28.71
		l10.1-28.71h-5.199V19.8h24.899v12.54h-6.7L89.359,87.451z"/>
	<path fill="#FFFFFF" d="M168.448,61.271c-4.2,11.22-14.101,18.81-25.2,18.81c-15.601,0-28.101-13.42-28.101-30.69
		c0-17.38,11.9-31.35,27.8-31.35c7.4,0,14.801,3.63,20.001,9.46c5.3,6.16,7.5,13.64,7.5,22l-0.4,4.73h-43.2
		c1.6,8.14,8.4,14.08,16,14.08c5.3,0,9.9-2.2,12.9-7.04H168.448z M159.147,43.89c-2.1-8.47-8.899-13.86-16.8-13.86
		c-7.2,0-14.1,6.16-15.6,13.86H159.147z"/>
	<path fill="#FFFFFF" d="M225.447,61.271c-4.2,11.22-14.101,18.81-25.2,18.81c-15.601,0-28.101-13.42-28.101-30.69
		c0-17.38,11.9-31.35,27.801-31.35c7.399,0,14.8,3.63,20,9.46c5.3,6.16,7.5,13.64,7.5,22l-0.4,4.73h-43.2
		c1.6,8.14,8.4,14.08,16,14.08c5.3,0,9.9-2.2,12.9-7.04H225.447z M216.146,43.89c-2.1-8.47-8.899-13.86-16.8-13.86
		c-7.2,0-14.1,6.16-15.6,13.86H216.146z"/>
	<path fill="#FFFFFF" d="M17.9,151.221c0,6.49,4,11.99,10.6,11.99c5.9,0,10.5-4.07,10.5-10.781c0-7.81-6.7-9.789-12.2-11.549
		c-5.2-1.65-9.6-3.081-14-6.71C7.7,129.99,5,124.05,5,117.01c0-12.98,10.1-22.66,21.6-22.66c4.9,0,9.7,1.76,12.7,6.05V96h10.4v21.12
		H37.5c-0.1-5.83-4-10.23-9.3-10.23s-9.7,3.63-9.7,9.79c0,7.7,6.2,9.35,11.7,11.11c5.5,1.65,10.7,3.3,15.3,7.15
		c4.601,4.07,7.101,9.899,7.101,16.5c0,14.19-9.601,24.64-22.601,24.64c-5.5,0-10.3-2.09-13.7-6.709v5.17H5.5v-23.32H17.9z"/>
	<path fill="#FFFFFF" d="M54.68,144.95c0-17.16,12.7-30.91,28.2-30.91c15.399,0,27.8,14.08,27.8,30.8c0,17.16-12.4,31.24-28.1,31.24
		C66.979,176.08,54.68,161.891,54.68,144.95z M98.68,145.17c0-9.57-6.9-17.93-15.8-17.93c-8.801,0-16.2,7.81-16.2,17.6
		c0,9.681,6.8,18.041,15.9,18.041C91.479,162.881,98.68,154.961,98.68,145.17z"/>
	<path fill="#FFFFFF" d="M130.058,162h6.9v12.541h-26.5V162h7.399v-53.46h-6.899V96h19.1V162z"/>
	<path fill="#FFFFFF" d="M189.667,162h6.9v12.541h-18.101v-7.261c-3.5,5.72-9.899,8.8-16.1,8.8c-5.7,0-11.101-2.64-14.8-7.479
		c-3.9-5.06-4.7-10.67-4.7-17.05v-23.21h-6.9V115.8h19.101v31.79c0,3.74,0.1,7.811,2.1,11c2,3.41,5.4,5.061,9,5.061
		c3.4,0,6.9-1.87,9-4.84c2.3-3.52,2.3-7.48,2.3-11.551V128.34h-6.899V115.8h19.1V162z"/>
	<path fill="#FFFFFF" d="M216.267,162h9.7v12.541h-21.9V128.34h-8.399V115.8h8.399V96h12.2v19.8h9.101v12.54h-9.101V162z"/>
	<path fill="#FFFFFF" d="M248.337,162h6.9v12.541h-26.1V162h7v-33.66h-6.9V115.8h19.1V162z M248.337,110.19h-12.199V96h12.199
		V110.19z"/>
	<path fill="#FFFFFF" d="M255.336,144.95c0-17.16,12.7-30.91,28.2-30.91c15.399,0,27.8,14.08,27.8,30.8
		c0,17.16-12.4,31.24-28.1,31.24C267.636,176.08,255.336,161.891,255.336,144.95z M299.336,145.17c0-9.57-6.9-17.93-15.8-17.93
		c-8.801,0-16.2,7.81-16.2,17.6c0,9.681,6.8,18.041,15.9,18.041C292.136,162.881,299.336,154.961,299.336,145.17z"/>
	<path fill="#FFFFFF" d="M318.955,128.34h-6.899V115.8h19.1v8.36c3.2-6.49,9.2-9.68,15.801-9.68c5.8,0,11.5,2.64,15.399,7.26
		c4.4,5.39,4.5,10.56,4.5,17.27V162h6.9v12.541h-26V162h6.899v-19.029c0-3.63,0-7.371-2.1-10.561c-2.2-3.19-5.8-4.73-9.4-4.73
		c-3.7,0-7.5,1.65-9.7,4.95c-2.3,3.3-2.3,8.36-2.3,12.32V162h6.9v12.541h-26V162h6.899V128.34z"/>
	<path fill="#FFFFFF" d="M388.205,157.49c0.4,5.28,3.6,8.801,8.6,8.801c3.7,0,7.301-2.86,7.301-7.261c0-5.83-5-6.819-9.101-8.03
		c-9.3-2.64-19.5-5.83-19.5-18.7c0-11.22,8.601-17.71,18.101-17.71c4.8,0,9.1,1.1,12.1,5.28v-4.07h9v15.95h-11.8
		c-0.2-4.18-3.101-6.93-6.9-6.93c-3.3,0-6.8,2.09-6.8,6.16c0,5.5,4.9,6.71,8.8,7.7c9.601,2.42,19.9,5.72,19.9,18.92
		c0,11.88-9.1,18.479-19.101,18.479c-5.399,0-10.3-1.869-13.8-6.379v4.84h-9.3V157.49H388.205z"/>
	<path fill="#FFFFFF" d="M17.9,242.221c0,6.49,4,11.99,10.6,11.99c5.9,0,10.5-4.07,10.5-10.781c0-7.81-6.7-9.789-12.2-11.549
		c-5.2-1.65-9.6-3.08-14-6.711C7.7,220.99,5,215.051,5,208.01c0-12.979,10.1-22.66,21.6-22.66c4.9,0,9.7,1.76,12.7,6.051V187h10.4
		v21.12H37.5c-0.1-5.83-4-10.229-9.3-10.229s-9.7,3.629-9.7,9.789c0,7.701,6.2,9.351,11.7,11.11c5.5,1.65,10.7,3.3,15.3,7.15
		c4.601,4.069,7.101,9.899,7.101,16.5c0,14.19-9.601,24.64-22.601,24.64c-5.5,0-10.3-2.09-13.7-6.709v5.17H5.5v-23.32H17.9z"/>
	<path fill="#FFFFFF" d="M54.68,235.95c0-17.16,12.7-30.91,28.2-30.91c15.399,0,27.8,14.08,27.8,30.8c0,17.16-12.4,31.24-28.1,31.24
		C66.979,267.08,54.68,252.891,54.68,235.95z M98.68,236.17c0-9.57-6.9-17.93-15.8-17.93c-8.801,0-16.2,7.811-16.2,17.6
		c0,9.681,6.8,18.041,15.9,18.041C91.479,253.881,98.68,245.961,98.68,236.17z"/>
	<path fill="#FFFFFF" d="M166.879,245.74c-3.3,12.43-14.8,21.34-26.5,21.34c-15.5,0-28.2-13.75-28.2-30.91
		c0-16.279,11.7-31.13,26.899-31.13c6.001,0,11.301,2.64,15.301,7.37v-5.609h10.5v19.58h-11.4c-3-4.841-7.899-8.031-13.3-8.031
		c-9.101,0-15.8,8.031-15.8,17.82c0,10.011,7.199,17.711,16.1,17.711c5.2,0,10.5-2.971,12.8-8.141H166.879z"/>
	<path fill="#FFFFFF" d="M188.057,253h6.9v12.541h-26.1V253h7v-33.66h-6.9v-12.539h19.1V253z M188.057,201.189h-12.199V187h12.199
		V201.189z"/>
	<path fill="#FFFFFF" d="M247.557,248.271c-4.2,11.22-14.101,18.81-25.2,18.81c-15.601,0-28.101-13.42-28.101-30.689
		c0-17.381,11.9-31.351,27.801-31.351c7.399,0,14.8,3.63,20,9.46c5.3,6.16,7.5,13.641,7.5,22l-0.4,4.73h-43.2
		c1.6,8.141,8.4,14.08,16,14.08c5.3,0,9.9-2.2,12.9-7.04H247.557z M238.256,230.891c-2.1-8.471-8.899-13.86-16.8-13.86
		c-7.2,0-14.1,6.16-15.6,13.86H238.256z"/>
	<path fill="#FFFFFF" d="M269.305,253h9.7v12.541h-21.9V219.34h-8.399v-12.539h8.399V187h12.2v19.801h9.101v12.539h-9.101V253z"/>
	<path fill="#FFFFFF" d="M311.916,274.451h7v12.539h-26.001v-12.539h6.7l3.601-9.681l-16.2-45.431h-7v-12.539h25.2v12.539h-5.2
		l9.5,28.711l10.1-28.711h-5.199v-12.539h24.899v12.539h-6.7L311.916,274.451z"/>
</g>
</svg>
